<?xml version="1.0" encoding="utf-8"?>
<!-- Generator: Adobe Illustrator 21.0.0, SVG Export Plug-In . SVG Version: 6.00 Build 0)  -->
<svg version="1.1" id="Слой_1" xmlns="http://www.w3.org/2000/svg" xmlns:xlink="http://www.w3.org/1999/xlink" x="0px" y="0px"
	 viewBox="0 0 240 240" style="enable-background:new 0 0 240 240;" xml:space="preserve">
<style type="text/css">
	.st0{fill:#FFFFFF;}
</style>
<g>
	<path d="M154,182c-19.5,0-28,5-34,12c-6.1-7-14.6-12-34-12c-15,0-25-3.8-25-22c0-9.5,0-113,0-113h118c0,0,0,51.2,0,113
		C179,178.2,169,182,154,182z"/>
	<path class="st0" d="M126.5,149.7"/>
	<path class="st0" d="M117.3,72.1l-8.3,2c0.7-3,0.7-6.1,0-9.2l8.3,2.1l-2.1-7.9c3.2,0.7,6.4,0.7,9.5,0l-2.1,8l8.3-2
		c-0.7,3-0.7,6,0,9l-8.3-2l2.1,7.9l0,0c-3.2-0.6-6.4-0.6-9.5,0L117.3,72.1z"/>
	<g>
		<path class="st0" d="M136.8,153.9c-3.1,1.3-7.5,2.1-10.7,2.1c-0.1,4,1.3,6.6,2.6,7.6c-0.2,0.4-0.5,1-1.3,1.2c-2.3,0.5-3.7,0.8-4,2
			c0.6-0.2,1.4-0.2,2,0.1c-1,0.5-1.4,1.3-1.4,1.9c0.7-0.3,1.4-0.3,2,0c-0.8,0.3-1.3,0.9-1.4,1.7c1.8,0,1.9,0,3.7,0
			c1.8,0,2.9-0.5,4.6-0.5s3,0.7,4.6,0.5s3.9-2.4,0.9-9.1c0.7,0.3,1.6,0.4,2.2,0.3C139,160.1,138.1,158.2,136.8,153.9z"/>
		<path class="st0" d="M99.3,156.5c1,0,3.5-0.7,3.9-1c-1.1-0.4-1.8-1.3-1.9-1.6c0.6-0.1,0.8-0.1,1.4-0.2c-0.2-4.6-6.1-8.9-6.6-8.8
			c-2,1.2-3.4,2.3-5.2,3.9c-3.5,3.9-1.9,5.9-5.8,10.5c-1.3,1.7-2,2.8-2.4,4.9c1-0.9,1.4-0.4,1.4-0.4c-0.1,0.7-0.1,1.2,0,2.1
			c0.3-0.3,0.8-0.9,1.6-1.1c0,0.3,0.2,1.2,0.7,1.7c1.3-2.1,4.2-2.8,5.6-4.6c1.3-1.6,2.2-3.2,3.8-3.6c2.2-0.6,3.6,0.4,5.1-0.7
			C99.8,157.2,99.4,156.8,99.3,156.5z"/>
		<path class="st0" d="M104.6,121.2c-0.2-0.5-0.1-1.2,0.2-1.7c-1,0.1-2.3,0.4-3.1,0.9c0.1-0.6,0.4-1.1,0.9-1.5
			c-0.9,0-2.7,0.3-4.3,0.7c-0.2-1.5-0.3-2.3-2.3-2.8c-1.1-0.3-3.3-0.5-3.2,2.1c-0.3,0-0.5,0.1-0.7,0.1c-0.8-2.3-3.3-1.3-3.9-1
			c-0.2,0.1-1.2,0.7-0.2,2.5c-2.5,1.6-3.8,2.8-5.6,6.2c-4,1.9-6.7,2.9-5.9,4.9c1.7,4.4,3.8,6.2,6.4,6.4c4.4,0.4,5.5,2.1,7,4.2
			c0.4-0.3,0.6-0.9,0.7-1.7c0.2,0.1,0.9,1.1,1.4,2.2c0.4-0.5,0.8-1.5,0.8-1.7c9.5,1.9,12.6,11.3,12.6,14.7c0.1,3.1,1.3,6.7,2.4,8
			c-0.5,0.8-1.3,1.6-2.4,1.8c-3,0.6-5.8,1.2-6.4,3c0.6-0.2,1.7-0.2,1.9,0.2c-0.8,0.3-1.4,0.7-1.4,1.7c0.7-0.3,1.8-0.1,2.1,0.3
			c-0.7,0.2-1.2,0.5-1.4,1.3c1.6,0,2.4,0,4.4,0s2.6-0.4,4.1-0.5s2.6,0.5,3.5,0.5s2.4,0,3.3-2.5c2-6.2,4.3-8.1,4.6-8.7
			c-0.6,0.1-1.2,0-1.5-0.1c0.8-0.4,2.2-2.8,2.5-3.7c-0.3,0.1-1,0.1-1.3,0c0.4-0.3,1.5-2.9,1.5-3.5c-0.8,0.2-1.4,0-1.4,0
			c1.1-1.9,2-4.3,2.2-4.8c0.1,1.7,0,2.8-0.2,3.9c0.5,0.1,0.8,0.1,1.3,0.1c0,0.4,0,0.6-0.1,1c5.2,0,10.8-1.2,14.8-3
			c2.8,8.4,4.1,10.3,9.7,13.9c-0.4,1-2,1.2-2.9,1.5c-1.2,0.4-2.4,1.1-2.8,2.2c0.7-0.3,1.3,0,1.7,0.3c-0.4,0.1-0.9,0.7-1.1,1.8
			c0.8-0.3,1.3-0.2,2,0.1c-0.5,0.3-0.9,0.7-1,1.5c1.7,0,3.7,0,5.3,0s2.5-1.2,4.1-1.6s2.2,0,4.1-0.8s1.7-3.2,0.7-5.6
			c-1.1-2.5-2-3.1-2.4-5.4c0.5-0.1,0.9,0,1.5,0.3c-1.5-4.1-2.3-9.8-1.1-15.3c0.7-0.3,1.7,0.1,2,0.4c0.1-1.5-0.1-2.9-0.8-4.1
			c0.4-0.1,0.8-0.1,1.2,0.2c0.2-12.8-4.6-18.1-25.1-18.1c-6,0-14,0-26,0c0-0.9,0-1,0.2-1.4C106.2,120.6,105.4,120.8,104.6,121.2z"/>
	</g>
	<path class="st0" d="M130,95l-4-3v-1h-13.6c-1.4,0-4.4,0.2-4.4,3c0,0.4,0,23,0,23c0,2.3,2.8,3,5,3h18V95H130z M112.9,95
		c-3,0-2.5-2-1-2h12.5l2.8,2H112.9z M125,107h-4v4l2,1v2l-2-1v3h-2v-4l-2-1v-2l2,1v-3h-4v-2h4v-2h-2v-2h2v-2h2v2h2v2h-2v2h4V107z"/>
</g>
</svg>
